<svg xmlns="http://www.w3.org/2000/svg" width="128" height="128" viewBox="0 0 128 128"><path fill="#1169b4" d="M45.189 8.868a58.232 58.232 0 0 1 75.692 42.515c6.885 31.104-12.5 61.966-43.508 69.268-30.224 7.118-60.716-10.732-69.307-40.57-8.59-29.839 7.741-61.17 37.123-71.213"/><defs><linearGradient id="a" x1="986.751" x2="558.994" y1="571.167" y2="618.293" gradientUnits="userSpaceOnUse"><stop offset="0" stop-color="#0e9146"/><stop offset="1" stop-color="#1e7ca0"/></linearGradient></defs><path fill="url(#a)" d="M822.609 164.377a465.86 465.86 0 0 1 144.439 246.689c55.082 248.826-100.002 495.729-348.066 554.144-4.136-5.329-17.276-4.103-20.141-6.954-4.955-4.93-.767-13.266-.777-18.994l-1.537-.879c-2.741-4.987-4.513-6.332-3.089-11.562 1.271-4.671-.167-13.1-.661-18.319-.483-5.097.986-9.906 2.045-14.945.388-1.849 1.267-2.156 1.332-4.667-3.116.749-7.102 7.475-11.688 7.805.285-.375 9.674-7.593 11.242-8.991 30.851-27.497 24.476-66.504 24.376-103.86a5848 5848 0 0 1 .318-94.404l128.577.024c12.755-.019 51.666 1.308 61.957-1.574 3.036-.85 4.847-2.222 6.384-5.043 1.457-2.671 1.587-5.351 1.654-8.317.581-25.506.378-51.094.441-76.609l.205-181.723.428-119.574c.022-11.756 1.06-50.032-1.362-59.287-2.389-4.003-3.145-5.116-7.167-7.8-7.76-3.216-26.062-1.693-35.65-2.063 12.662-16.978 24.808-34.471 37.43-51.489 2.948-3.974 5.64-8.261 9.31-11.608" transform="scale(.125)"/><path fill="#22b39e" d="M102.826 20.547a58.23 58.23 0 0 1 18.055 30.836c-.069.005-.155.014-.224.009-.611-.041-11.275-13.606-12.373-14.953-1.893-2.322-3.862-4.575-5.716-6.93l-.167.045-.065.113c-.299-.5-.393-.64-.896-.975-.97-.402-3.258-.212-4.456-.258 1.582-2.122 3.1-4.309 4.678-6.436.369-.497.705-1.033 1.164-1.45"/><path fill="#1a9178" d="M101.44 28.692c.521.018.887.37 1.128.816l-.167.046-.065.113c-.299-.5-.393-.64-.896-.975"/><path fill="#fdfcfb" d="M27.56 36.824c3.343-.082 7.033.045 10.429.042l24.407-.018 18.972-.03c3.316-.007 7.064-.094 10.337.02l.106.06 2.417.024q-1.455.02-2.908.018c-.58.773-1.133 1.658-1.738 2.391-2.617 3.17-5.021 6.565-7.663 9.705l.004.054c-.386.393-.721.92-1.06 1.36-1.461 1.894-2.968 3.754-4.452 5.63-.578.731-1.229 1.768-1.897 2.38l-.263-.09.093.167c-.12.33-.613 1.2-1.027 1.084-.182.06-.309.083-.446.216-1.157.552-2.96 1.799-4.117 2.494L66.14 62.3c.387-.222.968-.542 1.297-.825-.48.166-1.144.688-1.48.741-.793.126-1.878-.008-2.7.011-1.585.037-3.594-.127-5.123.062-2.854.354-5.425 2.327-6.654 4.909-.482 1.013-1.007 2.604-.892 3.743.046.325.061 1.067.028 1.39.052.986.078 4.067.008 5.023.01 2.22-.039 4.556.004 6.76-.706.036-1.734.007-2.468.008l-4.909.002-14.194.002c-.248-.001-1.195.025-1.36-.139-.147-.148-.142-.627-.143-.867-.004-1.868.005-3.742.01-5.61V67.497z"/><path fill="#1169b4" d="M50.589 70.94c-.36.142-3.25 1.951-3.5 2.189l.008.18c-.165-.073-.278-.258-.377-.41a22.35 22.35 0 0 1-3.174-16.944 21.43 21.43 0 0 1 5.001-9.84c.493-.54 1.235-1.299 1.843-1.696 1.491.96 2.951 1.964 4.433 2.94l17.022 11.258c-.866.629-1.892 1.237-2.786 1.843-.301.204-1.36.907-1.62 1.014-.48.167-1.144.69-1.481.742-.793.126-1.878-.008-2.7.011-1.585.037-3.594-.127-5.123.062-2.854.354-5.425 2.327-6.654 4.909-.482 1.013-1.007 2.604-.892 3.743"/><path fill="#3b9fdc" d="M51.514 43.342q.255-.22.526-.418c4.452-3.296 9.953-4.382 15.38-3.586 4.605.675 9.13 3.398 12.228 6.809.816.898 1.55 1.908 2.27 2.89l.005.053c-.386.393-.721.92-1.06 1.36-1.461 1.894-2.968 3.754-4.452 5.63-.578.731-1.229 1.768-1.897 2.38l-.263-.09c-.274-.09-1.78-1.222-2.165-1.466a668 668 0 0 1-13.32-8.757c-2.365-1.568-4.956-3.15-7.252-4.805"/><path fill="#1169b4" d="M47.785 74.307c.928-.665 1.893-1.322 2.832-1.977.052.987.078 4.068.008 5.024-.348-.385-.839-.793-1.21-1.176a21 21 0 0 1-1.63-1.87"/><path fill="#080809" d="M73.317 59.62c-.034.438-1.43 1.81-1.803 2.313-.055.197-.313.468-.455.639 1.94.415 3.743 1.77 4.785 3.436 1.678 2.688 1.705 5.027 1.704 8.014l-.004 3.708.007 4.258c.001.595-.028 1.56.015 2.132-.081.354-.061 1.698-.016 2.06a731 731 0 0 0-.04 11.8c.013 4.67.81 9.546-3.047 12.983-.195.175-1.37 1.077-1.405 1.124-2.856 1.638-4.012 1.43-7.191 1.437l-4.093.015c-3.459.01-5.964-.193-8.584-2.825a8.7 8.7 0 0 1-2.346-4.19c-.331-1.467-.211-5.115-.217-6.82l-.01-13.518.011-1.928v-.144c-.042-2.204.008-4.54-.003-6.76.07-.956.044-4.037-.008-5.023a8 8 0 0 0-.028-1.39c-.115-1.139.41-2.73.892-3.743 1.229-2.582 3.8-4.555 6.654-4.909 1.53-.19 3.538-.025 5.123-.062.822-.018 1.907.115 2.7-.01.337-.054 1-.576 1.48-.742-.33.283-.91.603-1.297.825l2.612.031c1.158-.695 2.96-1.942 4.118-2.494.137-.133.264-.155.446-.216"/><path fill="#f4c113" d="M73.317 59.62c-.034.438-1.43 1.81-1.803 2.313-.138.079-.412.426-.534.567-.694-.158-1.282-.153-1.985-.171.742-.485 3.35-1.994 3.876-2.492.137-.133.264-.155.446-.216"/><path fill="#4f627e" d="M58.599 62.46c.813-.042 1.891-.005 2.722.002q2.436.015 4.87.059c2.716.049 4.949-.29 7.293 1.367 4.517 3.194 3.864 8.447 3.867 13.268q.045 6.136-.01 12.272l.004 9.408c.016 2.056.143 4.51-.08 6.54-.41 3.729-3.835 7.217-7.453 7.854a7 7 0 0 1-.444.067c-2.28.287-5.158-.05-7.492.083-1.169.067-2.914-.013-4.031-.266a9.1 9.1 0 0 1-3.633-1.707c-1.755-1.368-3.079-3.516-3.33-5.738-.105-.927-.075-1.907-.075-2.844l.003-4.252q-.03-7.302.032-14.606l.03-9.146c-.002-.896.007-1.81.008-2.702.026-.769-.081-1.631.047-2.39.678-4.01 3.659-6.823 7.672-7.269"/><path fill="#080809" d="M59.298 63.275c.531-.026 1.043.016 1.574.02l3.16.011c1.97.006 4.299-.08 6.234.168.731.094 1.96.634 2.58 1.063 1.975 1.37 2.944 3.362 3.38 5.68.217 1.16.154 2.247.145 3.413l-.028 3.843.04 10.746.01 10.76c.004 1.537.097 4.498-.076 5.89a8.84 8.84 0 0 1-1.529 3.927c-1.441 2.06-3.503 3.081-5.924 3.514-2.26.171-4.644.007-6.917.06-1.244.028-2.663 0-3.866-.3a8.9 8.9 0 0 1-3.588-1.852c-1.598-1.344-2.5-3.275-2.712-5.352-.059-.577-.01-1.778-.005-2.399q.014-1.793.002-3.587l.002-15.168-.038-9.12c-.001-1.212-.07-3.477.098-4.58a8.17 8.17 0 0 1 1.88-4.106c1.573-1.82 3.257-2.466 5.578-2.63"/><defs><linearGradient id="b" x1="534.57" x2="489.097" y1="897.91" y2="506.722" gradientUnits="userSpaceOnUse"><stop offset="0" stop-color="#d0d4d6"/><stop offset="1" stop-color="#f8f7f7"/></linearGradient></defs><path fill="url(#b)" d="M471.821 508.193c3.807-.678 29.115.118 34.559.162q14.728.076 29.454-.08c16.742-.103 31.509-.386 46.107 9.526 16.106 10.936 25.862 32.935 27.054 51.947.855 13.635.441 28.322.445 42.075l.076 85.427.181 94.317c0 15.513.416 32.727-.657 48.075-.58 8.304-6.181 21.716-10.977 28.542-11.405 16.232-26.308 24.959-45.432 28.681q-.75.119-1.504.215c-5.865.768-23.656.736-30.287.551-15.673-.438-39.837 1.362-54.237-1.897a70.4 70.4 0 0 1-26.937-12.796 61.26 61.26 0 0 1-23.94-42.104c-.574-4.819-.292-12.542-.238-17.579q.143-12.354.085-24.707l-.106-93.432-.214-86.548q-.14-17.126.064-34.25c.068-6.989-.041-16.006.922-22.78a63.24 63.24 0 0 1 12.999-30.474c11.763-14.748 24.151-20.738 42.583-22.871" transform="scale(.125)"/><path fill="#080809" d="M63.01 79.025c.58-.06 1.184-.061 1.767-.041 4.03.14 7.746 3.357 8.221 7.396a8.58 8.58 0 0 1-1.827 6.361 9.24 9.24 0 0 1-6.28 3.442c-2.513.23-4.701-.337-6.704-1.893-6.575-5.107-3.157-14.389 4.822-15.266"/><path fill="#4f627e" d="M62.905 79.21c2.543-.188 4.572.147 6.663 1.704 1.693 1.26 2.927 3.221 3.222 5.324a8.5 8.5 0 0 1-1.612 6.227c-1.599 2.107-3.766 3.185-6.344 3.534-2.485.138-4.397-.285-6.42-1.798-6.489-4.855-3.32-14.051 4.491-14.992"/><path fill="#080809" d="M62.146 85.273c.428-.03 3.854-.165 4.083.142.387.52.197 2.307.228 3.004.018.404-.01.814-.347 1.117a68 68 0 0 1-4.3-.013c.002-1.169-.064-2.746.022-3.927.013-.175.171-.235.314-.323"/><path fill="#e7e7e8" d="M64.584 85.47c.343-.008 1.494-.118 1.558.264.128.754.23 2.853-.052 3.485-.264.19-2.136.107-2.604.103l-1.433-.002c-.009-.681-.123-3.243.087-3.711.452-.227 1.851-.144 2.444-.14"/><path fill="#080809" d="M62.936 86.254q1.236-.014 2.472.015c.01.43.068 1.926-.049 2.26l-2.437-.002a73 73 0 0 1 .014-2.273"/><path fill="#4f627e" d="M63.134 86.444c.687.009 1.404-.004 2.093-.006l-.021 1.892c-.671-.017-1.392-.007-2.067-.01z"/><path fill="#080809" d="M68.683 85.185c.913.73 2.42 1.61 3.171 2.38-.385.401-1.036.92-1.475 1.292-.325.283-1.48 1.392-1.801 1.346-.195-.352-.07-4.034-.058-4.691.002-.117.09-.239.163-.327"/><path fill="#e7e7e8" d="M68.693 85.516c.389.15 2.475 1.723 2.876 2.058-.431.397-.93.809-1.377 1.195q-.725.633-1.46 1.255c-.066-1.43-.047-3.075-.04-4.508"/><path fill="#080809" d="M59.294 85.298c.176.063.297.21.298.39.004.667.19 3.686-.122 4.114-.394-.03-1.558-.859-1.95-1.114a88 88 0 0 1-1.56-1.028c.768-.632 2.47-1.763 3.334-2.362"/><path fill="#e7e7e8" d="m59.254 85.549.043.013c.163.21.079 3.5.076 4.02-.62-.362-1.223-.752-1.83-1.138-.438-.28-.784-.514-1.202-.823.69-.574 2.132-1.522 2.913-2.072"/><path fill="#080809" d="M61.932 91.153c1.185-.06 2.401-.004 3.589-.009.336-.001.848-.031 1.064.245-.055.436-.928 1.305-1.247 1.667-.395.433-.84.983-1.31 1.307-.608-.756-1.59-2.16-2.13-3.005-.052-.082-.014-.103.034-.205"/><path fill="#e7e7e8" d="M62.14 91.338c1.261-.007 3.08-.066 4.278.038-.273.501-.848 1.09-1.243 1.53q-.52.598-1.071 1.171c-.318-.35-1.802-2.342-1.963-2.74"/><path fill="#080809" d="M64.112 80.53c.578.077 2.115 2.433 2.51 3.005-.736.102-1.532.077-2.278.075-.789.002-1.784.027-2.552-.039.34-.75 1.745-2.345 2.32-3.041"/><path fill="#e7e7e8" d="M64.231 80.727c.352.283 1.755 2.23 2.038 2.662-.645.025-1.354.015-2.003.019l-2.182.003c.398-.644 1.63-2.127 2.147-2.684"/><path fill="#080809" d="M66.322 98.838c.96-.03 2.156-.017 3.126.02.873.07 4.119-.431 3.996 1.109-.128 1.597.83 4.384-1.24 4.659q-2.01.017-4.02.014c-2.406 0-3.55.256-3.304-2.658.11-1.317-.463-2.867 1.442-3.144"/><path fill="#4f627e" d="M66.195 99.02c.8-.03 6.093-.035 6.39.104.26.122.544.383.638.66.2.59.183 3.685-.109 4.183-.182.311-.457.4-.79.468-1.253.005-5.97.21-6.775-.242-.226-.127-.375-.362-.445-.608-.114-.4-.103-2.906-.034-3.372.032-.221.096-.436.214-.627.215-.348.528-.479.91-.566"/><path fill="#080809" d="M68.792 99.184c.256.455.495 1.221.77 1.773.38.069 1.485.212 1.667.565-.195.428-1.323.513-1.681.875-.386.39-.306.904-.677 1.39-.43-.182-.57-1.04-.726-1.504-.462-.204-1.494-.362-1.753-.784.218-.32 1.336-.522 1.778-.632.202-.59.38-1.105.622-1.683"/><path fill="#e7e7e8" d="M68.762 99.544c.083.095.5 1.205.688 1.538.62.131 1 .18 1.578.45-.507.288-1.054.36-1.623.674-.334.5-.327.909-.625 1.433-.142-.266-.402-1.1-.569-1.495-.328-.151-1.37-.392-1.521-.637.201-.2 1.241-.414 1.58-.495.142-.493.273-1.005.492-1.468"/><path fill="#080809" d="M55.817 98.638c.868-.054 6.007-.174 6.508.167.24.164.4.538.48.805.239.805.264 3.81-.146 4.504-.174.295-.43.4-.75.472-.94.084-5.611.17-6.306-.06-.298-.098-.51-.346-.649-.619-.338-.66-.378-3.682-.115-4.434.155-.443.579-.658.978-.835"/><path fill="#4f627e" d="M55.874 98.826c.961-.014 5.605-.159 6.2.113.262.119.465.328.562.6.187.524.219 3.888-.026 4.351-.162.306-.463.44-.779.534q-1.99.03-3.98.01c-2.723-.004-3.018.216-2.932-2.904.017-.62.018-1.31.029-1.936.283-.462.427-.584.926-.768"/><path fill="#080809" d="M55.935 100.963c.743-.039 5.182-.16 5.57.081.09.055.126.195.135.293.027.294-.02.576-.21.806-.516.166-4.78.143-5.382.025-.255-.25-.18-.88-.113-1.205"/><path fill="#e7e7e8" d="m56.07 101.123 3.444-.01c.552 0 1.104-.007 1.656.018.43.02.261.563.192.826-.429.104-4.605.051-5.293.05z"/><path fill="#080809" d="m66.957 71.392 3.52-.01c2.276-.014 3.357-.225 3.081 2.59-.121 1.234.514 3.032-1.065 3.517-1.404.248-3.695.057-5.127.049-1.644-.22-1.632-1.363-1.556-2.637.076-1.25-.48-3.174 1.147-3.51"/><path fill="#4f627e" d="M66.86 71.575c.962-.008 4.889-.105 5.604.108.31.093.649.267.797.57.221.453.166 3.93-.031 4.401-.148.355-.382.48-.722.627-1.604.184-3.8.092-5.415.015-1.701-.08-.999-3.691-1.041-4.787-.015-.371.527-.768.808-.934"/><path fill="#080809" d="M69.641 72.309a2.08 2.08 0 1 1 .355 4.143 2.08 2.08 0 0 1-.355-4.144"/><path fill="#fdfcfb" d="M69.59 72.497a1.891 1.891 0 1 1 .47 3.753 1.891 1.891 0 0 1-.47-3.753"/><path fill="#080809" d="M69.615 73.199a1.18 1.18 0 1 1 .415 2.324 1.18 1.18 0 0 1-.415-2.324"/><path fill="#4f627e" d="M69.658 73.395a.99.99 0 1 1 .355 1.947.99.99 0 0 1-.355-1.947"/><path fill="#080809" d="M55.74 71.4c.967.01 1.938.011 2.908.022.694.037 2.219-.23 2.81.156 1.078.705.602 3.51.656 4.668.03.632-.553 1.2-1.16 1.319-.953.086-5.162.202-5.824-.182-.347-.201-.558-.679-.637-1.053-.162-.769-.144-2.771-.009-3.56.052-.3.163-.598.338-.849.239-.34.519-.46.918-.521"/><path fill="#4f627e" d="M59.807 71.596c2.978-.16 1.941 1.607 2.16 3.795.047.462-.1 1.567-.468 1.758-.933.483-3.67.25-4.642.237-.539 0-1.346.052-1.77-.3-.329-.298-.441-.846-.463-1.252-.287-5.385.674-4.13 5.183-4.238"/><path fill="#080809" d="M57.775 72.235a2.17 2.17 0 1 1 1.019 4.22 2.17 2.17 0 0 1-1.019-4.22"/><path fill="#fdfcfb" d="M57.855 72.414a1.97 1.97 0 1 1 .856 3.847 1.97 1.97 0 0 1-.856-3.847"/><path fill="#080809" d="M57.903 73.167a1.235 1.235 0 1 1 .742 2.355 1.235 1.235 0 0 1-.742-2.355"/><path fill="#4f627e" d="M57.967 73.366a1.03 1.03 0 1 1 .637 1.959 1.03 1.03 0 0 1-.637-1.959"/><path fill="#080809" d="M70.489 66.11a1.47 1.47 0 1 1 .712 2.852 1.47 1.47 0 0 1-.712-2.853"/><path fill="#fdfcfb" d="M70.522 66.31c1.125.006 1.912.857 1.377 1.906-.122.24-.75.63-1.01.408.2-.491.112-1.489.098-2.06-.02-.096-.033-.097-.083-.186-.434.476.03 2.002-.154 2.299-.835.3-1.902-1.618-.228-2.367"/><path fill="#080809" d="M56.508 66.261a1.433 1.433 0 1 1 .95 2.703 1.433 1.433 0 0 1-.95-2.703"/><path fill="#ad4141" d="M56.578 66.385c.584-.066 1.056.033 1.399.563.187.284.248.633.17.964-.11.458-.377.663-.76.883-1.759.276-2.13-1.608-.809-2.41"/><path fill="#e7e7e8" d="m98.368 36.81 2.088.015.053 35.9-.002 6.765c0 1.066.076 3.417-.16 4.322-.355.335-6.774.259-7.96.266l-14.821.042c-.043-.572-.014-1.537-.015-2.132l-.007-4.258.004-3.708c0-2.987-.026-5.326-1.704-8.014-1.042-1.667-2.846-3.02-4.785-3.436.142-.171.4-.442.455-.64.373-.503 1.769-1.875 1.803-2.311.414.116.907-.755 1.027-1.084l-.093-.166.263.089c.668-.612 1.319-1.649 1.897-2.38 1.484-1.876 2.99-3.736 4.451-5.63.34-.44.675-.967 1.061-1.36l-.004-.054c2.642-3.14 5.046-6.535 7.663-9.705.605-.733 1.158-1.618 1.738-2.39q1.455 0 2.908-.019l-2.417-.024-.106-.06 4.452-.005c.547-.001 1.69.027 2.21-.023"/><path fill="#4f8ac8" d="M81.923 49.09a22.28 22.28 0 0 1 2.552 17.182c-1.067 4.234-3.632 8.587-6.93 11.458l.003-3.708c0-2.987-.026-5.326-1.704-8.014-1.042-1.667-2.846-3.02-4.785-3.436.142-.171.4-.442.455-.64.373-.503 1.769-1.875 1.803-2.311.414.116.907-.755 1.027-1.084l-.093-.166.263.089c.668-.612 1.319-1.649 1.897-2.38 1.484-1.876 2.99-3.736 4.451-5.63.34-.44.675-.967 1.061-1.36"/><path fill="#fdfcfb" d="M96.984 28.434c1.198.046 3.486-.144 4.456.258.503.336.597.475.896.975.302 1.157.173 5.941.17 7.411l-.053 14.947-.026 22.715c-.008 3.19.017 6.388-.055 9.576-.009.371-.025.706-.207 1.04-.192.353-.419.524-.798.63-1.286.36-6.15.195-7.745.197L77.55 86.18c-.045-.362-.065-1.706.016-2.06l14.822-.043c1.185-.006 7.604.07 7.96-.265.235-.905.159-3.256.16-4.322v-6.766l-.052-35.899-2.088-.015c-.521.05-1.664.022-2.21.023l-4.453.004c-3.273-.113-7.02-.026-10.337-.02l-18.972.03-24.407.019c-3.396.003-7.086-.124-10.428-.042l.004 30.673V77.51c-.005 1.868-.014 3.742-.01 5.61.001.24-.004.72.144.867.164.164 1.11.138 1.36.139l14.193-.002 4.91-.002c.733 0 1.76.028 2.467-.008v.144l-.013 1.928c-1.426.035-2.97.007-4.406.015q-5.466.045-10.933.018l-5.188.016c-.952.003-1.952.028-2.901-.028a1.7 1.7 0 0 1-1.061-.427c-.622-.57-.717-1.262-.723-2.065-.008-1.297.016-2.6.01-3.897q-.034-5.805.02-11.61l-.002-17.316-.006-13.549.002-4.258c.002-1.268-.263-3.77 1.043-4.286 1.307-.517 4.186-.32 5.668-.32 3.297.064 6.794-.006 10.108-.007l18.58.013 23.166-.026c4.312-.005 8.684.03 12.99-.025"/><defs><linearGradient id="c" x1="511.874" x2="511.632" y1="294.853" y2="245.934" gradientUnits="userSpaceOnUse"><stop offset="0" stop-color="#494749"/><stop offset="1" stop-color="#717078"/></linearGradient></defs><path fill="url(#c)" d="M495.92 246.459c9.534-.871 27.586-.381 37.626-.39l68.935-.037 58.768.076c6.449.014 23.413-.359 29.374.357l75.808.033c8.948 0 29.543-.658 37.585.206l.722.6c.452 4.922.183 12.364.115 17.418a2005 2005 0 0 0-.297 27.964l-.033 1.883-.876.035-16.704-.126c-4.167.402-13.315.178-17.685.189l-35.617.032c-26.187-.91-56.166-.209-82.701-.156l-151.769.24-195.263.143c-27.167.028-56.682-.994-83.423-.331l-1.032.119c.045-7.262-1.021-43.394.458-47.296.932-.866 1.253-.932 2.824-.933 11.064-.008 22.19.051 33.25.023l70.567-.094z" transform="scale(.125)"/><path fill="#080809" d="M27.489 30.927c.116-.108.156-.116.353-.116 1.383-.001 2.774.006 4.156.003l8.821-.012 21.171.005.805.059-.094.005c.162-.07.082-.064.248 0l-.084.019-.02-.049c-.77.017-1.559.063-2.341.082a233 233 0 0 1-5.083.029 945 945 0 0 1-16.153-.072c-1.183-.004-2.233.051-3.393.069l-4.717.033c-.783.01-2.952.075-3.64.005z"/><path fill="#080809" d="m86.328 30.808 9.476.004c1.118 0 3.693-.082 4.698.026q-.022.022-.049.04c-.224.133-13.697.151-14.784-.027q.33-.019.659-.043"/><path fill="#080809" d="m100.57 36.586-.005.235-.11.005-2.087-.016c.432-.284 1.56-.115 2.202-.224"/><path fill="#080809" d="M34.48 31.942c1.168-.044 2.608.01 3.807.01l7.69.008q9.394.07 18.788.046 4.076.01 8.153-.031c1.23-.012 2.637-.054 3.875.01.268.014.485.362.627.57.093.62.152 1.927.025 2.553-.05.242-.201.338-.4.452-3.014.081-6.41.008-9.457.01l-18.255-.006H39.64c-1.602.002-3.273.029-4.876-.022-.195-.022-.498-.04-.604-.253-.361-.731-.254-1.877-.168-2.672.038-.348.234-.508.488-.675"/><defs><linearGradient id="d" x1="445.239" x2="445.264" y1="281.679" y2="258.321" gradientUnits="userSpaceOnUse"><stop offset="0" stop-color="#6b696a"/><stop offset="1" stop-color="#848383"/></linearGradient></defs><path fill="url(#d)" d="M275.377 258.049c2.943-.424 11.148-.207 14.445-.193l27.679.089 100.776.111 142.311-.088 35.631-.082c4.378-.013 15.141-.349 18.931.453 4.068 3.082 3.711 20.751 1.157 24.253-11.948.782-30.576.209-43.009.209l-79.298.106-144.767-.3c-23.112-.077-46.218-.116-69.338-.128-4.677.732-6.332-2.229-6.379-6.6-.051-4.865-1.284-14.003 1.861-17.83" transform="scale(.125)"/><path fill="#080809" d="M81.554 32.463c1.235.07 2.654.04 3.9.041l6.027-.008c1.03-.006 2.914-.106 3.938.122.437.097.509 1.21.45 1.628-.106.748-.149 1.046-.978 1.128l-8.56-.035c-1.696-.006-3.51.028-5.191-.03-1.04-.66-1.076-2.61.414-2.846"/><path fill="#504f50" d="M81.299 32.7c.699-.041 1.675-.006 2.407-.003l4.617.012 4.192-.016c.793-.003 2.124-.056 2.852.1.417.302.352 1.791.11 2.164-.202.163-.233.154-.502.19-2.721.08-5.845-.009-8.595-.014l-3.092-.007c-.629 0-1.26.018-1.885-.043-.818-.08-.868-.931-.724-1.568.105-.459.226-.57.62-.815"/><defs><linearGradient id="e" x1="258.449" x2="238.172" y1="273.095" y2="255.887" gradientUnits="userSpaceOnUse"><stop offset="0" stop-color="#8d8f9c"/><stop offset="1" stop-color="#a6a1a4"/></linearGradient></defs><path fill="url(#e)" d="M236.58 280.541c-2.06-2.889-2.115-6.126-2.037-9.386.261-10.81-2.866-19.485 11.686-19.142 8.675.205 16.047.135 17.201 11.168.464 4.433-.307 13.001-2.053 16.718-.804 2.099-.161 1.307-1.861 2.568-1.745.13-1.649.207-3.223-.509-4.059 3.355-15.007 2.628-19.095-1.364z" transform="scale(.125)"/><path fill="#471d04" d="M30.982 32.27c1.152-.49 1.761.534 1.566 1.612-.43.796-1.339.99-2.074.483-.211-.285-.306-.395-.415-.727l.101-.228c.28-.592.282-.751.85-1.056z"/><path fill="#a55f0a" d="M31.01 32.354c.58-.142 1.046-.06 1.36.5l-.02.052-.089-.08c-.392-.353-.746-.428-1.262-.275.18.018.273-.04.457-.102.283.17.493.27.716.515l-.003.093c-.393.232-.474.113-.515.609l-.364.214-.18-.182-.046.001c-.23-.485.125-.558.301-.865-.47-.087-.642.508-.704.877l-.064.038c-.095-.163-.087-.2-.234-.293-.072.179-.018.276-.024.475-.16-.176-.148-.284-.179-.521.28-.592.282-.751.85-1.056"/><path fill="#d29603" d="M31.11 33.698c.032-.247.11-.514.39-.516.169.184.116.176.154.484l-.364.214z"/><path fill="#420e03" d="m31.064 33.7.046-.002.18.182c.208-.017.546.015.629.232-.247.398-.732.37-1.07.087l.12-.023c.075-.184.072-.225.09-.418z"/><path fill="#6c6a68" d="m32.548 33.882.211-.05q-.069.407-.15.812l-.022.294.085.05c-.1.262-.02.163-.232.32-.219.017-.207.026-.403-.063-.508.42-1.876.328-2.387-.17l-.077-.007c.036-.304-.076-.694-.09-1.087.392.21.563.366.991.384.735.507 1.643.313 2.074-.483"/><path fill="#504f50" d="M31.396 35.305c-.243-.044-1.166-.377-1.358-.56.076-.086.354-.016.504-.007 1.165.064.908.162 1.86-.401-.006.133.001.06-.025.219l.233.088-.023.294.085.05c-.1.262-.02.163-.232.32-.219.017-.207.026-.403-.063-.294-.031-.345-.006-.641.06"/><path fill="#808082" d="m29.65 35.074.08-.087c.444.346.819.444 1.409.364q.13-.02.257-.046c.296-.066.347-.091.64-.06-.507.42-1.875.328-2.386-.17"/><path fill="#080809" d="M29.573 35.068c-.258-.361-.265-.766-.255-1.174.032-1.35-.358-2.435 1.46-2.392 1.085.025 2.007.017 2.15 1.396.059.554-.038 1.625-.256 2.09l-.085-.05.023-.294q.08-.405.15-.811c.03-1.06.107-1.228-.491-2.058-1.223-.108-2.838-.533-2.77 1.047.013.317.012.857-.016 1.158.014.394.126.784.09 1.088"/><path fill="#080809" d="m30.982 32.27.028.084c-.568.305-.57.464-.85 1.056l-.1.228c-.039-.678.278-1.124.922-1.367"/><path fill="#080809" d="M98.072 32.832a1.096 1.096 0 1 1 .624 2.102 1.096 1.096 0 0 1-.624-2.102"/><path fill="#6c6a68" d="M98.193 33.06a.845.845 0 1 1 .394 1.643.845.845 0 0 1-.394-1.643"/><path fill="#808082" d="m100.565 36.821.095 32.664-.007 9.124c0 1.578.003 3.174-.02 4.753-.004.215-.057.407-.207.562s-.79.216-1.014.224c-2.866.098-5.767.074-8.632.074l-13.204.03c0 .527.026 1.431-.026 1.928-.045-.362-.065-1.706.016-2.06l14.822-.043c1.185-.006 7.604.07 7.96-.265.235-.905.159-3.256.16-4.322v-6.766l-.052-35.899z"/><path fill="#808082" d="m27.56 36.824.005 30.673V77.51c-.005 1.868-.014 3.742-.01 5.61.001.24-.004.72.144.867.164.164 1.11.138 1.36.139l14.193-.002 4.91-.002c.733 0 1.76.028 2.467-.008v.144c-.506-.037-1.344-.01-1.874-.01l-3.808-.002-11.626.001-3.412.004c-.63 0-1.255.01-1.883-.022-.549-.027-.615-.374-.617-.843-.008-2.352.01-4.704.016-7.056l.004-12.852-.01-16.4c-.004-3.38-.05-6.866.013-10.239z"/><path fill="#3b9fdc" d="M45.189 8.868a58.23 58.23 0 0 1 57.637 11.68c-.459.418-.795.953-1.164 1.45-1.577 2.127-3.096 4.314-4.678 6.436-4.307.055-8.68.02-12.991.025l-23.166.026-18.58-.013c-3.314 0-6.811.07-10.108.006.09-.053 33.235-.104 36.422-.103l6.414-.011c.826-.002 2.346.06 3.086-.011-2.696-.01-5.355-.351-8.05-.341-.543.002-1.213-.155-1.772-.19a365 365 0 0 1-7.864-.572c-.747-.064-1.658-.132-2.36-.336-1.657-.481-3.572-.323-5.145-1.095-.2-.098-.204-.603-.218-.79l-.05.026c-.143-.024-.219-.036-.357-.078-.31-.77-.42-2.849-.244-3.689.095-.453.329-1.015.39-1.476.071-.53-.463-1.071-.398-1.614.178-.596.465-.787.482-1.536.013-.514-.432-1.215-.308-1.57.182-.143.559-.145.816-.211.168-.176.116-.442.068-.665-.2-.923-.106-1.42.17-2.3.19-.603-.748-1.58-1.135-2.071-.152.023-.198.03-.35.029-.453-.445-.793-.784-1.194-1.273l-.308.06c-.095-.138-.044-.304-.034-.518-.082-.036-.037-.014-.134-.067.21-.475.877-.379 1.344-.74l-.116-.062.055.11-.038-.109c-.202-.08-.313.06-.478.169-1.314.065-2.87.696-4.141 1.055-.411.116-1.13.454-1.503.369"/></svg>